<?xml version="1.0" encoding="UTF-8" standalone="no"?>
<svg xmlns:dc="http://purl.org/dc/elements/1.1/" xmlns:cc="http://creativecommons.org/ns#" xmlns:rdf="http://www.w3.org/1999/02/22-rdf-syntax-ns#" xmlns:svg="http://www.w3.org/2000/svg" xmlns="http://www.w3.org/2000/svg" xmlns:sodipodi="http://sodipodi.sourceforge.net/DTD/sodipodi-0.dtd" xmlns:inkscape="http://www.inkscape.org/namespaces/inkscape" version="1.1" x="0px" y="0px" viewBox="0 0 106 86.460442" enable-background="new 0 0 100 100" xml:space="preserve" id="svg2" inkscape:version="0.92.4 (5da689c313, 2019-01-14)" sodipodi:docname="Q638_noun_23486_ccIlsurAptukov_music.svg" width="106" height="86.460442"><metadata id="metadata50"><rdf:RDF><cc:Work rdf:about=""><dc:format>image/svg+xml</dc:format><dc:type rdf:resource="http://purl.org/dc/dcmitype/StillImage"/><dc:title/></cc:Work></rdf:RDF></metadata><defs id="defs48"/><sodipodi:namedview pagecolor="#ffffff" bordercolor="#666666" borderopacity="1" objecttolerance="10" gridtolerance="10" guidetolerance="10" inkscape:pageopacity="0" inkscape:pageshadow="2" inkscape:window-width="1920" inkscape:window-height="1001" id="namedview46" showgrid="false" inkscape:zoom="3.776" inkscape:cx="41.287315" inkscape:cy="69.947855" inkscape:window-x="1591" inkscape:window-y="120" inkscape:window-maximized="1" inkscape:current-layer="svg2" fit-margin-top="5" fit-margin-left="5" fit-margin-right="5" fit-margin-bottom="5"/><path d="M 98,5 56,19.447 v 50.284 c -1.832,-0.864 -4.27,-1.001 -6.694,-0.193 -4.192,1.397 -6.74,5.078 -5.692,8.222 1.048,3.144 5.295,4.559 9.487,3.162 3.742,-1.247 6.166,-4.314 5.899,-7.195 V 28.461 L 95,16.064 v 32.681 c -1.835,-0.876 -4.286,-1.019 -6.722,-0.207 -4.192,1.397 -6.74,5.078 -5.692,8.222 1.048,3.144 5.295,4.559 9.487,3.162 3.525,-1.175 5.878,-3.965 5.918,-6.692 H 98 Z" id="path4" inkscape:connector-curvature="0"/><g id="g6" transform="translate(3,-3.539)"><path d="m 19,9 v 43 c -1.869,-0.892 -4.481,-0.971 -6.963,-0.143 -4.269,1.423 -6.865,5.172 -5.798,8.374 1.067,3.202 5.393,4.644 9.663,3.221 3.59,-1.197 6.047,-4.038 6.087,-6.816 H 22 V 23 c 0,0 12.926,3.741 17,18 C 39,24.704 25,22 19,9 Z" id="path8" inkscape:connector-curvature="0"/><g id="g10"><path d="M 37.423,79 H 2 v 2 h 35.476 c -0.105,-0.667 -0.121,-1.336 -0.053,-2 z" id="path12" inkscape:connector-curvature="0"/><path d="M 98,81 V 79 H 58.9 c -0.115,0.68 -0.31,1.351 -0.591,2 z" id="path14" inkscape:connector-curvature="0"/><path d="M 5.078,64 H 2 v 2 H 7.87 C 6.789,65.499 5.842,64.824 5.078,64 Z" id="path16" inkscape:connector-curvature="0"/><path d="m 98,66 v -2 h -3.769 c -0.978,0.804 -2.112,1.487 -3.377,2 z" id="path18" inkscape:connector-curvature="0"/><path d="M 78.401,64 H 59 v 2 h 22.155 c -1.073,-0.499 -1.998,-1.18 -2.754,-2 z" id="path20" inkscape:connector-curvature="0"/><path d="m 21.09,64 c -0.996,0.803 -2.149,1.486 -3.433,2 H 50 v -2 z" id="path22" inkscape:connector-curvature="0"/><rect x="25" y="49" width="25" height="2" id="rect24"/><path d="M 11.125,49 H 2 v 2 h 5.25 c 1.106,-0.825 2.395,-1.508 3.839,-1.99 0.012,-0.004 0.024,-0.006 0.036,-0.01 z" id="path26" inkscape:connector-curvature="0"/><path d="m 59,51 h 21.822 c 1.029,-0.725 2.201,-1.333 3.507,-1.769 0.264,-0.088 0.53,-0.16 0.796,-0.231 H 59 Z" id="path28" inkscape:connector-curvature="0"/><path d="M 32.25,34 H 25 v 2 h 8.595 C 33.168,35.288 32.718,34.622 32.25,34 Z" id="path30" inkscape:connector-curvature="0"/><rect x="2" y="34" width="14" height="2" id="rect32"/><polygon points="59,36 89,36 89,34 59.406,34 59,34.14 " id="polygon34"/><path d="M 41.551,36 H 50 v -2 h -8.898 c 0.175,0.642 0.323,1.311 0.449,2 z" id="path36" inkscape:connector-curvature="0"/><path d="m 32.734,21 h 18.028 c 0.335,-0.378 0.762,-0.678 1.263,-0.851 L 55.366,19 h -24.68 c 0.004,0.004 0.008,0.007 0.011,0.011 0.68,0.657 1.362,1.317 2.037,1.989 z" id="path38" inkscape:connector-curvature="0"/><rect x="2" y="19" width="14" height="2" id="rect40"/></g></g></svg>